<?xml version="1.0" standalone="no"?>
<!DOCTYPE svg PUBLIC "-//W3C//DTD SVG 20010904//EN"
 "http://www.w3.org/TR/2001/REC-SVG-20010904/DTD/svg10.dtd">
<svg version="1.0" xmlns="http://www.w3.org/2000/svg"
 width="300.000000pt" height="101.000000pt" viewBox="0 0 300.000000 101.000000"
 preserveAspectRatio="xMidYMid meet">
<metadata>
Created by potrace 1.10, written by Peter Selinger 2001-2011
</metadata>
<g transform="translate(0.000000,101.000000) scale(0.100000,-0.100000)"
fill="#000000" stroke="none">
<path d="M579 876 c-54 -19 -104 -52 -140 -93 -33 -38 -68 -107 -69 -134 0
-22 128 -71 245 -95 185 -36 447 -15 515 43 48 40 37 69 -37 107 -49 24 -59
19 -24 -13 17 -16 31 -33 31 -38 0 -34 -83 -77 -174 -91 -74 -12 -242 -4 -306
13 -8 2 -29 7 -45 9 -27 5 -108 31 -157 51 -27 11 -22 46 14 100 133 200 444
169 528 -53 11 -29 20 -59 20 -67 0 -8 5 -17 10 -20 19 -12 10 60 -14 112 -32
69 -105 138 -173 163 -62 23 -168 26 -224 6z"/>
<path d="M232 802 c-48 -24 -55 -25 -85 -13 -52 21 -87 25 -87 10 0 -20 10
-32 47 -58 30 -20 33 -27 33 -76 0 -101 22 -114 39 -25 l12 60 38 -20 c28 -14
40 -27 44 -50 7 -35 27 -41 27 -7 0 27 10 41 33 50 9 3 17 11 17 17 0 12 -2
12 -35 0 -22 -8 -32 -6 -61 18 -19 15 -34 30 -34 33 0 3 20 20 45 38 75 54 56
68 -33 23z"/>
<path d="M2254 766 c2 -12 8 -76 12 -143 4 -71 11 -123 17 -123 25 0 36 38 37
123 l0 87 28 0 c15 0 34 5 42 11 11 8 4 9 -27 7 -24 -2 -43 0 -43 3 0 4 -3 14
-6 23 -5 13 2 16 37 16 30 1 39 3 29 9 -8 5 -41 8 -73 8 -54 0 -58 -1 -53 -21z"/>
<path d="M1282 773 c-23 -2 -40 -8 -37 -13 3 -5 12 -7 20 -3 13 4 15 -15 15
-131 0 -113 -3 -136 -15 -136 -8 0 -20 10 -26 22 -8 15 -14 18 -17 10 -6 -19
27 -52 53 -52 40 0 45 17 45 157 0 112 2 133 15 133 8 0 15 5 15 10 0 6 -6 9
-12 8 -7 -1 -32 -3 -56 -5z"/>
<path d="M1760 625 c0 -78 3 -97 16 -102 30 -11 47 22 49 98 3 68 15 96 37 83
4 -3 8 -48 8 -100 0 -72 3 -95 13 -91 20 7 16 172 -5 194 -14 13 -22 14 -42 5
-16 -7 -28 -8 -31 -2 -4 6 -15 10 -26 10 -17 0 -19 -8 -19 -95z"/>
<path d="M1687 704 c-4 -4 -17 -7 -29 -8 -25 -1 -24 5 -20 -116 2 -52 5 -60
21 -60 26 0 34 31 27 94 -9 69 -9 70 3 74 5 2 18 -12 28 -30 16 -30 18 -31 21
-11 6 40 -29 79 -51 57z"/>
<path d="M1940 664 c-20 -40 -21 -50 -11 -85 20 -67 68 -75 116 -18 31 38 33
60 2 31 -29 -28 -42 -28 -61 0 -22 31 -20 35 13 41 63 13 56 77 -9 77 -24 0
-32 -7 -50 -46z m74 -2 c-16 -25 -46 -29 -37 -5 11 32 25 45 37 33 7 -7 7 -16
0 -28z"/>
<path d="M2085 678 c8 -41 35 -80 62 -92 20 -9 21 -16 16 -103 -6 -96 -1 -109
30 -75 24 27 48 233 31 276 -13 33 -32 16 -39 -34 -4 -27 -10 -52 -14 -55 -13
-7 -47 37 -62 78 -16 46 -33 49 -24 5z"/>
<path d="M2576 703 c-4 -5 -18 -8 -29 -8 -12 0 -22 -6 -21 -12 1 -7 2 -42 3
-77 1 -45 6 -70 18 -81 15 -16 17 -16 26 1 5 9 7 50 4 90 -4 58 -3 74 8 74 7
0 18 -13 24 -30 11 -33 31 -41 31 -12 0 39 -43 75 -64 55z"/>
<path d="M2810 670 c-24 -47 -25 -71 -5 -110 27 -53 73 -49 115 11 26 35 22
49 -5 19 -22 -25 -37 -25 -58 -2 -24 27 -21 39 12 45 64 13 55 77 -10 77 -23
0 -32 -7 -49 -40z m76 15 c7 -18 -12 -45 -32 -45 -10 0 -11 6 -3 30 12 33 26
39 35 15z"/>
<path d="M1480 626 c0 -58 3 -67 27 -86 15 -11 33 -18 40 -16 7 3 13 -1 13 -9
0 -7 8 -21 17 -30 16 -16 18 -16 30 1 10 14 12 37 8 84 -9 97 -15 120 -31 120
-11 0 -14 -16 -14 -70 0 -56 -3 -72 -16 -77 -20 -8 -34 13 -34 53 0 53 -12 94
-26 94 -10 0 -14 -16 -14 -64z"/>
<path d="M2659 653 c-15 -39 -3 -70 32 -89 27 -14 30 -19 25 -46 -3 -17 -6
-37 -6 -44 0 -27 -28 -14 -40 19 -7 17 -14 27 -17 20 -2 -6 3 -25 12 -42 12
-24 22 -31 46 -31 25 0 32 6 46 37 20 50 14 154 -11 182 -28 31 -74 28 -87 -6z
m57 -8 c8 -19 -4 -65 -16 -65 -15 0 -32 39 -25 60 7 24 33 26 41 5z"/>
<path d="M1376 648 c-31 -43 -15 -101 32 -119 21 -8 29 -7 39 7 16 22 17 106
1 122 -19 19 -55 14 -72 -10z m74 -47 c0 -41 -14 -56 -34 -36 -19 19 -19 25
-6 60 9 23 13 25 25 15 8 -7 15 -24 15 -39z"/>
<path d="M2420 651 c-12 -23 -13 -81 -2 -97 4 -6 18 -17 31 -24 22 -11 27 -10
43 10 20 24 24 80 8 111 -7 12 -21 19 -40 19 -19 0 -33 -7 -40 -19z m70 -20
c5 -11 8 -27 5 -35 -3 -9 -7 -23 -10 -32 -8 -23 -35 1 -35 31 0 52 21 70 40
36z"/>
<path d="M362 544 c9 -122 77 -221 187 -273 46 -21 71 -26 136 -26 95 0 166
28 229 91 35 36 86 123 86 150 0 7 -35 9 -109 6 -172 -7 -351 26 -466 87 -27
14 -54 28 -59 30 -5 2 -7 -27 -4 -65z m158 -18 c154 -50 187 -56 324 -56 124
0 124 0 119 -22 -11 -42 -91 -126 -148 -154 -46 -22 -68 -26 -130 -26 -107 2
-188 41 -239 114 -34 51 -66 132 -66 172 0 13 5 17 18 13 9 -4 64 -22 122 -41z"/>
<path d="M1462 315 c-1 -19 3 -25 19 -25 15 0 20 5 17 22 -4 33 -33 35 -36 3z"/>
<path d="M1621 314 c0 -16 3 -24 5 -17 3 7 11 10 17 7 8 -3 13 5 14 18 0 13
-1 17 -4 10 -4 -10 -8 -10 -19 -1 -11 9 -14 6 -13 -17z"/>
<path d="M1710 315 c0 -20 4 -26 18 -23 9 2 17 12 17 23 0 11 -8 21 -17 23
-14 3 -18 -3 -18 -23z"/>
<path d="M1970 332 c0 -4 6 -14 13 -21 10 -11 10 -13 0 -7 -7 4 -13 2 -13 -3
0 -13 27 -14 35 -2 3 5 1 12 -5 16 -6 4 -8 11 -5 16 4 5 -1 9 -9 9 -9 0 -16
-4 -16 -8z"/>
<path d="M2211 313 c0 -16 3 -22 6 -14 5 11 7 11 14 0 6 -10 9 -6 9 14 0 17
-5 27 -15 27 -10 0 -15 -9 -14 -27z"/>
<path d="M2297 318 c-4 -12 -4 -24 -2 -27 3 -2 5 1 5 9 0 10 4 10 17 -1 15
-12 16 -12 10 4 -4 10 -7 23 -7 28 0 18 -18 8 -23 -13z"/>
<path d="M2550 315 c0 -18 5 -25 20 -25 11 0 20 5 20 11 0 5 -4 7 -10 4 -5 -3
-10 3 -10 14 0 12 -4 21 -10 21 -5 0 -10 -11 -10 -25z"/>
<path d="M2167 258 c-4 -12 -4 -24 -2 -27 3 -2 5 1 5 9 0 10 4 10 17 -1 15
-12 16 -12 10 4 -4 10 -7 23 -7 28 0 18 -18 8 -23 -13z"/>
</g>
</svg>
